<svg width="348" height="443" viewBox="0 0 348 443" fill="none" xmlns="http://www.w3.org/2000/svg">
<path fill-rule="evenodd" clip-rule="evenodd" d="M56.9455 338.509V332.182H53.7818V338.509H47.4545V341.673H53.7818V348H56.9455V341.673H63.2727V338.509H56.9455ZM56.9455 291.055V284.727H53.7818V291.055H47.4545V294.218H53.7818V300.545H56.9455V294.218H63.2727V291.055H56.9455ZM9.49091 338.509V332.182H6.32727V338.509H0V341.673H6.32727V348H9.49091V341.673H15.8182V338.509H9.49091ZM9.49091 291.055V284.727H6.32727V291.055H0V294.218H6.32727V300.545H9.49091V294.218H15.8182V291.055H9.49091Z" fill="black"/>
<path fill-rule="evenodd" clip-rule="evenodd" d="M56.9455 433.418V427.091H53.7818V433.418H47.4545V436.582H53.7818V442.909H56.9455V436.582H63.2727V433.418H56.9455ZM56.9455 385.964V379.636H53.7818V385.964H47.4545V389.127H53.7818V395.454H56.9455V389.127H63.2727V385.964H56.9455ZM9.49091 433.418V427.091H6.32727V433.418H0V436.582H6.32727V442.909H9.49091V436.582H15.8182V433.418H9.49091ZM9.49091 385.964V379.636H6.32727V385.964H0V389.127H6.32727V395.454H9.49091V389.127H15.8182V385.964H9.49091Z" fill="black"/>
<path fill-rule="evenodd" clip-rule="evenodd" d="M246.764 338.509V332.182H243.6V338.509H237.273V341.673H243.6V348H246.764V341.673H253.091V338.509H246.764ZM246.764 291.055V284.727H243.6V291.055H237.273V294.218H243.6V300.545H246.764V294.218H253.091V291.055H246.764ZM199.309 338.509V332.182H196.145V338.509H189.818V341.673H196.145V348H199.309V341.673H205.636V338.509H199.309ZM199.309 291.055V284.727H196.145V291.055H189.818V294.218H196.145V300.545H199.309V294.218H205.636V291.055H199.309Z" fill="black"/>
<path fill-rule="evenodd" clip-rule="evenodd" d="M246.764 433.418V427.091H243.6V433.418H237.273V436.582H243.6V442.909H246.764V436.582H253.091V433.418H246.764ZM246.764 385.964V379.636H243.6V385.964H237.273V389.127H243.6V395.454H246.764V389.127H253.091V385.964H246.764ZM199.309 433.418V427.091H196.145V433.418H189.818V436.582H196.145V442.909H199.309V436.582H205.636V433.418H199.309ZM199.309 385.964V379.636H196.145V385.964H189.818V389.127H196.145V395.454H199.309V389.127H205.636V385.964H199.309Z" fill="black"/>
<path fill-rule="evenodd" clip-rule="evenodd" d="M56.9455 148.691V142.364H53.7818V148.691H47.4545V151.855H53.7818V158.182H56.9455V151.855H63.2727V148.691H56.9455ZM56.9455 101.236V94.9092H53.7818V101.236H47.4545V104.4H53.7818V110.727H56.9455V104.4H63.2727V101.236H56.9455ZM9.49091 148.691V142.364H6.32727V148.691H0V151.855H6.32727V158.182H9.49091V151.855H15.8182V148.691H9.49091ZM9.49091 101.236V94.9092H6.32727V101.236H0V104.4H6.32727V110.727H9.49091V104.4H15.8182V101.236H9.49091Z" fill="black"/>
<path fill-rule="evenodd" clip-rule="evenodd" d="M246.764 148.691V142.364H243.6V148.691H237.273V151.855H243.6V158.182H246.764V151.855H253.091V148.691H246.764ZM246.764 101.236V94.9092H243.6V101.236H237.273V104.4H243.6V110.727H246.764V104.4H253.091V101.236H246.764ZM199.309 148.691V142.364H196.145V148.691H189.818V151.855H196.145V158.182H199.309V151.855H205.636V148.691H199.309ZM199.309 101.236V94.9092H196.145V101.236H189.818V104.4H196.145V110.727H199.309V104.4H205.636V101.236H199.309Z" fill="black"/>
<path fill-rule="evenodd" clip-rule="evenodd" d="M151.855 338.509V332.182H148.691V338.509H142.364V341.673H148.691V348H151.855V341.673H158.182V338.509H151.855ZM151.855 291.055V284.727H148.691V291.055H142.364V294.218H148.691V300.545H151.855V294.218H158.182V291.055H151.855ZM104.4 338.509V332.182H101.236V338.509H94.9091V341.673H101.236V348H104.4V341.673H110.727V338.509H104.4ZM104.4 291.055V284.727H101.236V291.055H94.9091V294.218H101.236V300.545H104.4V294.218H110.727V291.055H104.4Z" fill="black"/>
<path fill-rule="evenodd" clip-rule="evenodd" d="M151.855 433.418V427.091H148.691V433.418H142.364V436.582H148.691V442.909H151.855V436.582H158.182V433.418H151.855ZM151.855 385.964V379.636H148.691V385.964H142.364V389.127H148.691V395.454H151.855V389.127H158.182V385.964H151.855ZM104.4 433.418V427.091H101.236V433.418H94.9091V436.582H101.236V442.909H104.4V436.582H110.727V433.418H104.4ZM104.4 385.964V379.636H101.236V385.964H94.9091V389.127H101.236V395.454H104.4V389.127H110.727V385.964H104.4Z" fill="black"/>
<path fill-rule="evenodd" clip-rule="evenodd" d="M341.673 338.509V332.182H338.509V338.509H332.182V341.673H338.509V348H341.673V341.673H348V338.509H341.673ZM341.673 291.055V284.727H338.509V291.055H332.182V294.218H338.509V300.545H341.673V294.218H348V291.055H341.673ZM294.218 338.509V332.182H291.055V338.509H284.727V341.673H291.055V348H294.218V341.673H300.545V338.509H294.218ZM294.218 291.055V284.727H291.055V291.055H284.727V294.218H291.055V300.545H294.218V294.218H300.545V291.055H294.218Z" fill="black"/>
<path fill-rule="evenodd" clip-rule="evenodd" d="M341.673 433.418V427.091H338.509V433.418H332.182V436.582H338.509V442.909H341.673V436.582H348V433.418H341.673ZM341.673 385.964V379.636H338.509V385.964H332.182V389.127H338.509V395.454H341.673V389.127H348V385.964H341.673ZM294.218 433.418V427.091H291.055V433.418H284.727V436.582H291.055V442.909H294.218V436.582H300.545V433.418H294.218ZM294.218 385.964V379.636H291.055V385.964H284.727V389.127H291.055V395.454H294.218V389.127H300.545V385.964H294.218Z" fill="black"/>
<path fill-rule="evenodd" clip-rule="evenodd" d="M151.855 148.691V142.364H148.691V148.691H142.364V151.855H148.691V158.182H151.855V151.855H158.182V148.691H151.855ZM151.855 101.236V94.9092H148.691V101.236H142.364V104.4H148.691V110.727H151.855V104.4H158.182V101.236H151.855ZM104.4 148.691V142.364H101.236V148.691H94.9091V151.855H101.236V158.182H104.4V151.855H110.727V148.691H104.4ZM104.4 101.236V94.9092H101.236V101.236H94.9091V104.4H101.236V110.727H104.4V104.4H110.727V101.236H104.4Z" fill="black"/>
<path fill-rule="evenodd" clip-rule="evenodd" d="M341.673 148.691V142.364H338.509V148.691H332.182V151.855H338.509V158.182H341.673V151.855H348V148.691H341.673ZM341.673 101.236V94.9092H338.509V101.236H332.182V104.4H338.509V110.727H341.673V104.4H348V101.236H341.673ZM294.218 148.691V142.364H291.055V148.691H284.727V151.855H291.055V158.182H294.218V151.855H300.545V148.691H294.218ZM294.218 101.236V94.9092H291.055V101.236H284.727V104.4H291.055V110.727H294.218V104.4H300.545V101.236H294.218Z" fill="black"/>
<path fill-rule="evenodd" clip-rule="evenodd" d="M56.9455 243.6V237.273H53.7818V243.6H47.4545V246.764H53.7818V253.091H56.9455V246.764H63.2727V243.6H56.9455ZM56.9455 196.145V189.818H53.7818V196.145H47.4545V199.309H53.7818V205.636H56.9455V199.309H63.2727V196.145H56.9455ZM9.49091 243.6V237.273H6.32727V243.6H0V246.764H6.32727V253.091H9.49091V246.764H15.8182V243.6H9.49091ZM9.49091 196.145V189.818H6.32727V196.145H0V199.309H6.32727V205.636H9.49091V199.309H15.8182V196.145H9.49091Z" fill="black"/>
<path fill-rule="evenodd" clip-rule="evenodd" d="M246.764 243.6V237.273H243.6V243.6H237.273V246.764H243.6V253.091H246.764V246.764H253.091V243.6H246.764ZM246.764 196.145V189.818H243.6V196.145H237.273V199.309H243.6V205.636H246.764V199.309H253.091V196.145H246.764ZM199.309 243.6V237.273H196.145V243.6H189.818V246.764H196.145V253.091H199.309V246.764H205.636V243.6H199.309ZM199.309 196.145V189.818H196.145V196.145H189.818V199.309H196.145V205.636H199.309V199.309H205.636V196.145H199.309Z" fill="black"/>
<path fill-rule="evenodd" clip-rule="evenodd" d="M56.9455 53.7818V47.4545H53.7818V53.7818H47.4545V56.9455H53.7818V63.2727H56.9455V56.9455H63.2727V53.7818H56.9455ZM56.9455 6.32727V0H53.7818V6.32727H47.4545V9.49091H53.7818V15.8182H56.9455V9.49091H63.2727V6.32727H56.9455ZM9.49091 53.7818V47.4545H6.32727V53.7818H0V56.9455H6.32727V63.2727H9.49091V56.9455H15.8182V53.7818H9.49091ZM9.49091 6.32727V0H6.32727V6.32727H0V9.49091H6.32727V15.8182H9.49091V9.49091H15.8182V6.32727H9.49091Z" fill="black"/>
<path fill-rule="evenodd" clip-rule="evenodd" d="M246.764 53.7818V47.4545H243.6V53.7818H237.273V56.9455H243.6V63.2727H246.764V56.9455H253.091V53.7818H246.764ZM246.764 6.32727V0H243.6V6.32727H237.273V9.49091H243.6V15.8182H246.764V9.49091H253.091V6.32727H246.764ZM199.309 53.7818V47.4545H196.145V53.7818H189.818V56.9455H196.145V63.2727H199.309V56.9455H205.636V53.7818H199.309ZM199.309 6.32727V0H196.145V6.32727H189.818V9.49091H196.145V15.8182H199.309V9.49091H205.636V6.32727H199.309Z" fill="black"/>
<path fill-rule="evenodd" clip-rule="evenodd" d="M151.855 243.6V237.273H148.691V243.6H142.364V246.764H148.691V253.091H151.855V246.764H158.182V243.6H151.855ZM151.855 196.145V189.818H148.691V196.145H142.364V199.309H148.691V205.636H151.855V199.309H158.182V196.145H151.855ZM104.4 243.6V237.273H101.236V243.6H94.9091V246.764H101.236V253.091H104.4V246.764H110.727V243.6H104.4ZM104.4 196.145V189.818H101.236V196.145H94.9091V199.309H101.236V205.636H104.4V199.309H110.727V196.145H104.4Z" fill="black"/>
<path fill-rule="evenodd" clip-rule="evenodd" d="M341.673 243.6V237.273H338.509V243.6H332.182V246.764H338.509V253.091H341.673V246.764H348V243.6H341.673ZM341.673 196.145V189.818H338.509V196.145H332.182V199.309H338.509V205.636H341.673V199.309H348V196.145H341.673ZM294.218 243.6V237.273H291.055V243.6H284.727V246.764H291.055V253.091H294.218V246.764H300.545V243.6H294.218ZM294.218 196.145V189.818H291.055V196.145H284.727V199.309H291.055V205.636H294.218V199.309H300.545V196.145H294.218Z" fill="black"/>
<path fill-rule="evenodd" clip-rule="evenodd" d="M151.855 53.7818V47.4545H148.691V53.7818H142.364V56.9455H148.691V63.2727H151.855V56.9455H158.182V53.7818H151.855ZM151.855 6.32727V0H148.691V6.32727H142.364V9.49091H148.691V15.8182H151.855V9.49091H158.182V6.32727H151.855ZM104.4 53.7818V47.4545H101.236V53.7818H94.9091V56.9455H101.236V63.2727H104.4V56.9455H110.727V53.7818H104.4ZM104.4 6.32727V0H101.236V6.32727H94.9091V9.49091H101.236V15.8182H104.4V9.49091H110.727V6.32727H104.4Z" fill="black"/>
<path fill-rule="evenodd" clip-rule="evenodd" d="M341.673 53.7818V47.4545H338.509V53.7818H332.182V56.9455H338.509V63.2727H341.673V56.9455H348V53.7818H341.673ZM341.673 6.32727V0H338.509V6.32727H332.182V9.49091H338.509V15.8182H341.673V9.49091H348V6.32727H341.673ZM294.218 53.7818V47.4545H291.055V53.7818H284.727V56.9455H291.055V63.2727H294.218V56.9455H300.545V53.7818H294.218ZM294.218 6.32727V0H291.055V6.32727H284.727V9.49091H291.055V15.8182H294.218V9.49091H300.545V6.32727H294.218Z" fill="black"/>
</svg>
